<svg xmlns="http://www.w3.org/2000/svg" width="1450" height="1450" viewBox="0 0 383.646 383.646"><path d="M381.638 192.286a189.213 189.213 0 01-188.08 189.209A189.213 189.213 0 013.228 194.553 189.213 189.213 0 01189.025 3.103a189.213 189.213 0 01192.559 184.65" fill="#fff"/><path d="M252.264 209.403c6.184 18.613 23.66 68.065-1.23 145.971-44.31 14.215-80.835 12.067-113.73.306 88.06-44.36 112.392-131.188 114.96-146.277z" fill="#4cbcd0"/><path d="M245.106 162.749c17.633 8.727 65.218 31.175 103.286 103.61-21.045 41.343-48.286 65.661-79.83 80.647 30.33-93.5-14.497-171.822-23.456-184.257z" fill="#5666a4"/><path d="M209.286 133.694c18.74-6.021 68.538-23.061 146.608 2.282 13.957 44.216 11.535 80.563-.517 113.226-43.918-87.99-130.954-112.842-146.09-115.508z" fill="#1ea12d"/><path d="M162.793 137.378c9.274-17.295 33.192-63.998 107.024-99.78 40.898 22.142 64.524 49.955 78.655 81.782-92.996-32.895-172.933 9.443-185.679 17.998z" fill="#8fbd1f"/><path d="M133.126 174.626c-6.015-18.668-23.042-68.275 2.554-145.954 44.438-13.816 80.942-11.34 113.729.717-88.46 43.566-113.579 130.172-116.283 145.237z" fill="#4cbcd0"/><path d="M139.263 222.39c-17.558-8.874-64.952-31.72-102.404-104.474 21.395-41.164 48.84-65.253 80.511-79.973-31.122 93.242 13.04 171.937 21.893 184.448z" fill="#5666a4"/><path d="M175.986 251.623c-18.697 6.152-68.374 23.538-146.62-1.262-14.267-44.118-12.1-80.48-.278-113.227 44.534 87.683 131.743 111.929 146.898 114.489z" fill="#1ea12d"/><path d="M223.083 246.041c-8.928 17.475-31.911 64.64-105.016 101.873-41.33-21.33-65.507-48.672-80.269-80.214 93.634 31.054 172.712-12.854 185.285-21.659z" fill="#8fbd1f"/><path d="M297.489 192.286a105.063 105.25 0 01-104.434 105.249A105.063 105.25 0 0187.37 193.547 105.063 105.25 0 01190.537 87.053a105.063 105.25 0 01106.921 102.711" fill="#fff"/><g><path d="M117.424 133.678l131.28-16.337 20.598 165.52-12.477 14.853-107.174 13.1-11.867-13.537z"/><g style="line-height:1.25" aria-label="ANTRAG" font-weight="600" font-size="6.906" font-family="Open Sans" letter-spacing=".129" word-spacing="0" stroke-width=".065" fill="#fff"><path style="-inkscape-font-specification:'Open Sans Semi-Bold'" d="M144.955 159.9l-2.688-5.303-7.644.951-1.265 5.795-3.446.43 4.982-21.006 3.556-.443 9.978 19.144zm-3.9-8.013l-2.55-5.21q-.274-.521-.79-1.651-.501-1.132-.706-1.662-.16 1.728-.623 3.813l-1.156 5.435zM168.276 156.998l-4.007.499-11.815-14.708-.11.014.18.88q.508 2.52.77 4.626l1.293 10.392-2.967.37-2.488-19.993 3.966-.494 11.777 14.63.082-.01q-.068-.312-.394-2.27-.329-1.973-.466-3.081l-1.304-10.475 2.995-.373zM180.985 155.416l-3.268.407-2.14-17.19-5.88.732-.348-2.803 15.028-1.87.35 2.803-5.88.732zM192.405 143.136l2.27-.283q2.284-.284 3.204-1.26.92-.975.712-2.643-.21-1.696-1.41-2.297-1.2-.6-3.429-.323l-2.16.27zm.337 2.707l.994 7.986-3.268.407-2.489-19.993 5.648-.702q3.87-.482 5.91.736t2.405 4.145q.464 3.733-3.222 5.803l6.749 8.144-3.72.463-5.78-7.39zM221.283 150.401l-2.688-5.303-7.644.951-1.265 5.795-3.446.43 4.982-21.006 3.556-.443 9.978 19.144zm-3.9-8.013l-2.55-5.21q-.274-.52-.79-1.651-.502-1.132-.706-1.662-.16 1.728-.623 3.813l-1.157 5.435zM234.776 137.71l7.357-.916 1.249 10.038q-1.732.812-3.37 1.266-1.624.452-3.552.692-4.54.565-7.335-1.809-2.797-2.387-3.406-7.283-.6-4.827 1.837-7.894 2.435-3.08 7.304-3.686 3.131-.39 6.084.465l-.81 2.864q-2.573-.819-5.008-.516-3.2.399-4.81 2.64-1.609 2.242-1.175 5.729.456 3.665 2.363 5.372 1.918 1.691 5.064 1.3 1.586-.198 3.342-.819l-.642-5.155-4.143.515z"/></g><path d="M129.517 171.927l116.838-14.54 1.307 10.502-116.838 14.54zM133.91 207.223l116.837-14.54 1.307 10.502-116.838 14.54zM138.302 242.518l116.838-14.54 1.307 10.502-116.838 14.54zM140.498 260.165l74.829-9.312 1.307 10.502-74.83 9.313zM142.694 277.813l116.838-14.54 1.307 10.502-116.838 14.54zM136.105 224.87l49.886-6.208 1.307 10.502-49.886 6.209zM131.713 189.575l59.075-7.352 1.307 10.503-59.075 7.351zM196.04 181.57l52.511-6.535 1.307 10.502-52.511 6.535zM191.242 218.009l61.702-7.68 1.307 10.503-61.702 7.679zM220.578 250.2l36.758-4.575 1.307 10.502-36.758 4.575z" fill="#fff"/></g><path d="M190.094 63.136A129.746 129.171 0 0062.689 193.834a129.746 129.171 0 00130.514 127.62A129.746 129.171 0 00322.17 192.287l-.037-3.095a129.746 129.171 0 00-132.04-126.055zm.443 23.917a105.063 105.25 0 01106.921 102.711l.03 2.522a105.063 105.25 0 01-104.433 105.248A105.063 105.25 0 0187.37 193.547 105.063 105.25 0 01190.537 87.053z" fill="#ff8700"/></svg>